<svg viewBox="0,0,974,290" width="974" height="290" xmlns="http://www.w3.org/2000/svg" xmlns:xlink="http://www.w3.org/1999/xlink"><g fill="steelblue"><rect x="10" y="34.90196078431373" width="964" height="44.11764705882353"/><rect x="10" y="83.92156862745098" width="433.2299568197185" height="44.11764705882353"/><rect x="10" y="132.94117647058823" width="395.9061393861538" height="44.11764705882353"/><rect x="10" y="181.9607843137255" width="283.81083703779007" height="44.11764705882353"/><rect x="10" y="230.98039215686273" width="133.63769950925575" height="44.11764705882353"/></g><g fill="white" text-anchor="end" style="font: 24px sans-serif;"><text x="970" y="56.9607843137255" dy="0.35em">$108b</text><text x="439.2299568197185" y="105.98039215686275" dy="0.35em">$48.6b</text><text x="401.9061393861538" y="155" dy="0.35em">$44.4b</text><text x="289.81083703779007" y="204.01960784313727" dy="0.35em">$31.9b</text><text x="139.63769950925575" y="253.0392156862745" dy="0.35em">$15.0b</text></g><g fill="white" text-anchor="start" style="font: 24px sans-serif;"><text x="12" y="56.9607843137255" dy="0.35em">Home Depot</text><text x="12" y="105.98039215686275" dy="0.35em">Georgia</text><text x="12" y="155" dy="0.35em">Delta</text><text x="12" y="204.01960784313727" dy="0.35em">Coca-Cola</text><text x="12" y="253.0392156862745" dy="0.35em">NFL</text></g><g transform="translate(0,30)" fill="none" font-size="10" font-family="sans-serif" text-anchor="middle"/><g transform="translate(10,0)" fill="none" font-size="10" font-family="sans-serif" text-anchor="end"><path class="domain" stroke="currentColor" d="M0.5,30.5V280.5"/><g class="tick" opacity="1" transform="translate(0,56.9607843137255)"><line stroke="currentColor" x2="-6"/><text fill="currentColor" x="-9" dy="0.32em"/></g><g class="tick" opacity="1" transform="translate(0,105.98039215686275)"><line stroke="currentColor" x2="-6"/><text fill="currentColor" x="-9" dy="0.32em"/></g><g class="tick" opacity="1" transform="translate(0,155)"><line stroke="currentColor" x2="-6"/><text fill="currentColor" x="-9" dy="0.32em"/></g><g class="tick" opacity="1" transform="translate(0,204.01960784313727)"><line stroke="currentColor" x2="-6"/><text fill="currentColor" x="-9" dy="0.32em"/></g><g class="tick" opacity="1" transform="translate(0,253.0392156862745)"><line stroke="currentColor" x2="-6"/><text fill="currentColor" x="-9" dy="0.32em"/></g></g></svg>