<svg viewBox="0,0,974,1530" width="974" height="1530" xmlns="http://www.w3.org/2000/svg" xmlns:xlink="http://www.w3.org/1999/xlink"><g><g fill="rgb(66, 136, 181)"><rect x="10" y="32.99401197604789" width="217.79301084203635" height="26.94610778443114"/><rect x="10" y="62.93413173652693" width="648.930007180306" height="26.94610778443114"/><rect x="10" y="92.87425149700597" width="157.1971610404962" height="26.94610778443114"/><rect x="10" y="122.81437125748502" width="122.11963461246029" height="26.94610778443114"/><rect x="10" y="152.75449101796406" width="50.5719334027" height="26.94610778443114"/><rect x="10" y="182.6946107784431" width="75.03267820461858" height="26.94610778443114"/><rect x="10" y="212.63473053892216" width="74.59610077520266" height="26.94610778443114"/><rect x="10" y="242.5748502994012" width="73.79331935462733" height="26.94610778443114"/><rect x="10" y="272.5149700598802" width="61.53647289344204" height="26.94610778443114"/><rect x="10" y="302.45508982035926" width="22.79847065590765" height="26.94610778443114"/><rect x="10" y="332.3952095808383" width="26.856515650649214" height="26.94610778443114"/><rect x="10" y="362.33532934131733" width="17.816125084445243" height="26.94610778443114"/><rect x="10" y="392.2754491017964" width="21.37885612622883" height="26.94610778443114"/><rect x="10" y="422.21556886227546" width="7.371777408297305" height="26.94610778443114"/><rect x="10" y="452.1556886227545" width="9.631587141551456" height="26.94610778443114"/><rect x="10" y="482.09580838323353" width="11.632392004465544" height="26.94610778443114"/><rect x="10" y="512.0359281437126" width="4.559578595994578" height="26.94610778443114"/><rect x="10" y="541.9760479041915" width="0.229098740821847" height="26.94610778443114"/><rect x="10" y="571.9161676646706" width="11.872215485559913" height="26.94610778443114"/><rect x="10" y="601.8562874251497" width="11.34167037217393" height="26.94610778443114"/><rect x="10" y="631.7964071856287" width="0.8491978892040102" height="26.94610778443114"/><rect x="10" y="661.7365269461078" width="3.697452190131221" height="26.94610778443114"/><rect x="10" y="691.6766467065868" width="3.6814815476280227" height="26.94610778443114"/><rect x="10" y="721.6167664670659" width="5.16877414158917" height="26.94610778443114"/><rect x="10" y="751.556886227545" width="0.7779432452027777" height="26.94610778443114"/><rect x="10" y="781.497005988024" width="4.62759719402232" height="26.94610778443114"/><rect x="10" y="811.437125748503" width="2.0257895299784128" height="26.94610778443114"/><rect x="10" y="841.377245508982" width="4.293438793855419" height="26.94610778443114"/><rect x="10" y="871.3173652694611" width="2.140862990723983" height="26.94610778443114"/><rect x="10" y="901.2574850299401" width="3.081602337164469" height="26.94610778443114"/><rect x="10" y="931.1976047904192" width="2.369120577836691" height="26.94610778443114"/><rect x="10" y="961.1377245508982" width="1.4327171538170287" height="26.94610778443114"/><rect x="10" y="991.0778443113772" width="0.013411640528380175" height="26.94610778443114"/><rect x="10" y="1021.0179640718563" width="2.2345929838466816" height="26.94610778443114"/><rect x="10" y="1050.9580838323354" width="2.1128761888893823" height="26.94610778443114"/><rect x="10" y="1080.8982035928143" width="1.536052381000145" height="26.94610778443114"/><rect x="10" y="1110.8383233532934" width="0.4376925463638557" height="26.94610778443114"/><rect x="10" y="1140.7784431137725" width="1.3597304574035576" height="26.94610778443114"/><rect x="10" y="1170.7185628742516" width="1.2972948205177683" height="26.94610778443114"/><rect x="10" y="1200.6586826347304" width="1.0102035973931827" height="26.94610778443114"/><rect x="10" y="1230.5988023952095" width="1.1942380067996208" height="26.94610778443114"/><rect x="10" y="1260.5389221556886" width="1.165706448511557" height="26.94610778443114"/><rect x="10" y="1290.4790419161677" width="1.1100431414345788" height="26.94610778443114"/><rect x="10" y="1320.4191616766468" width="0.9135704108301059" height="26.94610778443114"/><rect x="10" y="1350.3592814371257" width="0.861792760824212" height="26.94610778443114"/><rect x="10" y="1380.2994011976048" width="0.8195919365856188" height="26.94610778443114"/><rect x="10" y="1410.2395209580839" width="0.7277913298769327" height="26.94610778443114"/><rect x="10" y="1440.179640718563" width="0.6125528449908604" height="26.94610778443114"/><rect x="10" y="1470.119760479042" width="0.5492705678157161" height="26.94610778443114"/><rect x="10" y="1500.059880239521" width="0" height="26.94610778443114"/></g><g fill="rgb(209, 236, 158)"><rect x="227.79301084203635" y="32.99401197604789" width="475.9162598594128" height="26.94610778443114"/><rect x="658.930007180306" y="62.93413173652693" width="127.9276944124855" height="26.94610778443114"/><rect x="167.1971610404962" y="92.87425149700597" width="0" height="26.94610778443114"/><rect x="132.1196346124603" y="122.81437125748502" width="97.540208740418" height="26.94610778443114"/><rect x="60.5719334027" y="152.75449101796406" width="67.23743684227999" height="26.94610778443114"/><rect x="85.03267820461858" y="182.6946107784431" width="9.117863212526174" height="26.94610778443114"/><rect x="84.59610077520266" y="212.63473053892216" width="1.2256258177862094" height="26.94610778443114"/><rect x="83.79331935462733" y="242.5748502994012" width="0.010397374319623509" height="26.94610778443114"/><rect x="71.53647289344204" y="272.5149700598802" width="0.002356181392826784" height="26.94610778443114"/><rect x="32.79847065590765" y="302.45508982035926" width="9.659746343928845" height="26.94610778443114"/><rect x="36.856515650649214" y="332.3952095808383" width="24.677306341174493" height="26.94610778443114"/><rect x="27.816125084445243" y="362.33532934131733" width="24.138015131227935" height="26.94610778443114"/><rect x="31.37885612622883" y="392.2754491017964" width="0.4757599639536032" height="26.94610778443114"/><rect x="17.371777408297305" y="422.21556886227546" width="4.425606792580467" height="26.94610778443114"/><rect x="19.631587141551456" y="452.1556886227545" width="5.947352610856974" height="26.94610778443114"/><rect x="21.632392004465544" y="482.09580838323353" width="2.1009297091267243" height="26.94610778443114"/><rect x="14.559578595994578" y="512.0359281437126" width="10.246507506867589" height="26.94610778443114"/><rect x="10.229098740821847" y="541.9760479041915" width="0" height="26.94610778443114"/><rect x="21.872215485559913" y="571.9161676646706" width="0.0850344340621163" height="26.94610778443114"/><rect x="21.34167037217393" y="601.8562874251497" width="0.018652360988848926" height="26.94610778443114"/><rect x="10.84919788920401" y="631.7964071856287" width="5.978450242712132" height="26.94610778443114"/><rect x="13.697452190131221" y="661.7365269461078" width="0.004163704764039267" height="26.94610778443114"/><rect x="13.681481547628023" y="691.6766467065868" width="1.8550805608289593" height="26.94610778443114"/><rect x="15.16877414158917" y="721.6167664670659" width="0" height="26.94610778443114"/><rect x="10.777943245202778" y="751.556886227545" width="4.0445625163663905" height="26.94610778443114"/><rect x="14.62759719402232" y="781.497005988024" width="0" height="26.94610778443114"/><rect x="12.025789529978413" y="811.437125748503" width="0.21934067502140486" height="26.94610778443114"/><rect x="14.293438793855419" y="841.377245508982" width="0.17338331123281492" height="26.94610778443114"/><rect x="12.140862990723983" y="871.3173652694611" width="0" height="26.94610778443114"/><rect x="13.081602337164469" y="901.2574850299401" width="0.5243430221476402" height="26.94610778443114"/><rect x="12.369120577836691" y="931.1976047904192" width="0.3703044783269558" height="26.94610778443114"/><rect x="11.432717153817029" y="961.1377245508982" width="0.8982482821084563" height="26.94610778443114"/><rect x="10.01341164052838" y="991.0778443113772" width="0" height="26.94610778443114"/><rect x="12.234592983846682" y="1021.0179640718563" width="0" height="26.94610778443114"/><rect x="12.112876188889382" y="1050.9580838323354" width="0.04019834438370218" height="26.94610778443114"/><rect x="11.536052381000145" y="1080.8982035928143" width="0.0335291013209531" height="26.94610778443114"/><rect x="10.437692546363856" y="1110.8383233532934" width="0" height="26.94610778443114"/><rect x="11.359730457403558" y="1140.7784431137725" width="0" height="26.94610778443114"/><rect x="11.297294820517768" y="1170.7185628742516" width="0.0259312850376201" height="26.94610778443114"/><rect x="11.010203597393183" y="1200.6586826347304" width="0.09920755096249678" height="26.94610778443114"/><rect x="11.19423800679962" y="1230.5988023952095" width="0" height="26.94610778443114"/><rect x="11.165706448511557" y="1260.5389221556886" width="0" height="26.94610778443114"/><rect x="11.110043141434579" y="1290.4790419161677" width="0" height="26.94610778443114"/><rect x="10.913570410830106" y="1320.4191616766468" width="0" height="26.94610778443114"/><rect x="10.861792760824212" y="1350.3592814371257" width="0" height="26.94610778443114"/><rect x="10.819591936585619" y="1380.2994011976048" width="0" height="26.94610778443114"/><rect x="10.727791329876933" y="1410.2395209580839" width="0" height="26.94610778443114"/><rect x="10.61255284499086" y="1440.179640718563" width="0.08187806542576581" height="26.94610778443114"/><rect x="10.549270567815716" y="1470.119760479042" width="0" height="26.94610778443114"/><rect x="10" y="1500.059880239521" width="0" height="26.94610778443114"/></g><g fill="rgb(254, 206, 126)"><rect x="703.7092707014491" y="32.99401197604789" width="13.458829873275931" height="26.94610778443114"/><rect x="786.8577015927915" y="62.93413173652693" width="1.5800160434621375" height="26.94610778443114"/><rect x="167.1971610404962" y="92.87425149700597" width="342.64466551719056" height="26.94610778443114"/><rect x="229.65984335287828" y="122.81437125748502" width="5.976971548381897" height="26.94610778443114"/><rect x="127.80937024497999" y="152.75449101796406" width="1.740857824826918" height="26.94610778443114"/><rect x="94.15054141714475" y="182.6946107784431" width="1.571110409341344" height="26.94610778443114"/><rect x="85.82172659298887" y="212.63473053892216" width="0" height="26.94610778443114"/><rect x="83.80371672894695" y="242.5748502994012" width="0.8269253606645464" height="26.94610778443114"/><rect x="71.53882907483487" y="272.5149700598802" width="0.5656213693658856" height="26.94610778443114"/><rect x="42.458216999836495" y="302.45508982035926" width="22.903642973033143" height="26.94610778443114"/><rect x="61.53382199182371" y="332.3952095808383" width="0.006218124244981027" height="26.94610778443114"/><rect x="51.95414021567318" y="362.33532934131733" width="0.5837621372305861" height="26.94610778443114"/><rect x="31.854616090182432" y="392.2754491017964" width="0.002469083021278351" height="26.94610778443114"/><rect x="21.797384200877772" y="422.21556886227546" width="5.8931534281916775" height="26.94610778443114"/><rect x="25.57893975240843" y="452.1556886227545" width="1.9344596108902685" height="26.94610778443114"/><rect x="23.733321713592268" y="482.09580838323353" width="2.7711286503226766" height="26.94610778443114"/><rect x="24.806086102862167" y="512.0359281437126" width="0.902687839933364" height="26.94610778443114"/><rect x="10.229098740821847" y="541.9760479041915" width="2.26055877337766" height="26.94610778443114"/><rect x="21.95724991962203" y="571.9161676646706" width="0.13702252490030276" height="26.94610778443114"/><rect x="21.36032273316278" y="601.8562874251497" width="0.010438462709245755" height="26.94610778443114"/><rect x="16.827648131916142" y="631.7964071856287" width="0.17913154036327938" height="26.94610778443114"/><rect x="13.70161589489526" y="661.7365269461078" width="2.032473160073728" height="26.94610778443114"/><rect x="15.536562108456982" y="691.6766467065868" width="0.04026729240841753" height="26.94610778443114"/><rect x="15.16877414158917" y="721.6167664670659" width="0" height="26.94610778443114"/><rect x="14.822505761569168" y="751.556886227545" width="0.35105859128272243" height="26.94610778443114"/><rect x="14.62759719402232" y="781.497005988024" width="0.008362157869445497" height="26.94610778443114"/><rect x="12.245130204999818" y="811.437125748503" width="0.04706577491625907" height="26.94610778443114"/><rect x="14.466822105088234" y="841.377245508982" width="0" height="26.94610778443114"/><rect x="12.140862990723983" y="871.3173652694611" width="0.2927795875686936" height="26.94610778443114"/><rect x="13.60594535931211" y="901.2574850299401" width="0.15513433581385705" height="26.94610778443114"/><rect x="12.739425056163647" y="931.1976047904192" width="0.5236087348287111" height="26.94610778443114"/><rect x="12.330965435925485" y="961.1377245508982" width="0.1894372887932967" height="26.94610778443114"/><rect x="10.01341164052838" y="991.0778443113772" width="0" height="26.94610778443114"/><rect x="12.234592983846682" y="1021.0179640718563" width="0.00914430036026026" height="26.94610778443114"/><rect x="12.153074533273085" y="1050.9580838323354" width="0" height="26.94610778443114"/><rect x="11.569581482321098" y="1080.8982035928143" width="0.26552585381297256" height="26.94610778443114"/><rect x="10.437692546363856" y="1110.8383233532934" width="0" height="26.94610778443114"/><rect x="11.359730457403558" y="1140.7784431137725" width="0.00914430036026026" height="26.94610778443114"/><rect x="11.323226105555388" y="1170.7185628742516" width="0.00030481001200932667" height="26.94610778443114"/><rect x="11.10941114835568" y="1200.6586826347304" width="0.1338915164569503" height="26.94610778443114"/><rect x="11.19423800679962" y="1230.5988023952095" width="0" height="26.94610778443114"/><rect x="11.165706448511557" y="1260.5389221556886" width="0.022789547281844236" height="26.94610778443114"/><rect x="11.110043141434579" y="1290.4790419161677" width="0" height="26.94610778443114"/><rect x="10.913570410830106" y="1320.4191616766468" width="0.11337853419279575" height="26.94610778443114"/><rect x="10.861792760824212" y="1350.3592814371257" width="0" height="26.94610778443114"/><rect x="10.819591936585619" y="1380.2994011976048" width="0" height="26.94610778443114"/><rect x="10.727791329876933" y="1410.2395209580839" width="0" height="26.94610778443114"/><rect x="10.694430910416626" y="1440.179640718563" width="0" height="26.94610778443114"/><rect x="10.549270567815716" y="1470.119760479042" width="0.004114081694083893" height="26.94610778443114"/><rect x="10" y="1500.059880239521" width="0" height="26.94610778443114"/></g><g fill="rgb(209, 60, 75)"><rect x="717.168100574725" y="32.99401197604789" width="246.83189942527497" height="26.94610778443114"/><rect x="788.4377176362536" y="62.93413173652693" width="0" height="26.94610778443114"/><rect x="509.8418265576868" y="92.87425149700597" width="1.028487382115543" height="26.94610778443114"/><rect x="235.63681490126018" y="122.81437125748502" width="0" height="26.94610778443114"/><rect x="129.5502280698069" y="152.75449101796406" width="0.17197655206535956" height="26.94610778443114"/><rect x="95.7216518264861" y="182.6946107784431" width="0.1475103668314972" height="26.94610778443114"/><rect x="85.82172659298887" y="212.63473053892216" width="0" height="26.94610778443114"/><rect x="84.6306420896115" y="242.5748502994012" width="0" height="26.94610778443114"/><rect x="72.10445044420075" y="272.5149700598802" width="0.036577201441033935" height="26.94610778443114"/><rect x="65.36185997286964" y="302.45508982035926" width="0.27727640169990764" height="26.94610778443114"/><rect x="61.54004011606869" y="332.3952095808383" width="0.12192400480346066" height="26.94610778443114"/><rect x="52.537902352903764" y="362.33532934131733" width="0.03547842230975107" height="26.94610778443114"/><rect x="31.85708517320371" y="392.2754491017964" width="0.018276713130049416" height="26.94610778443114"/><rect x="27.69053762906945" y="422.21556886227546" width="0.014617590859892005" height="26.94610778443114"/><rect x="27.5133993632987" y="452.1556886227545" width="0.007351651717634411" height="26.94610778443114"/><rect x="26.504450363914945" y="482.09580838323353" width="0.010302578405891438" height="26.94610778443114"/><rect x="25.70877394279553" y="512.0359281437126" width="0.00985115477810794" height="26.94610778443114"/><rect x="12.489657514199507" y="541.9760479041915" width="10.82806403885128" height="26.94610778443114"/><rect x="22.094272444522332" y="571.9161676646706" width="0.01694432760556097" height="26.94610778443114"/><rect x="21.370761195872024" y="601.8562874251497" width="0" height="26.94610778443114"/><rect x="17.00677967227942" y="631.7964071856287" width="0.34339816702292225" height="26.94610778443114"/><rect x="15.734089054968988" y="661.7365269461078" width="0" height="26.94610778443114"/><rect x="15.5768294008654" y="691.6766467065868" width="0.008981227003836523" height="26.94610778443114"/><rect x="15.16877414158917" y="721.6167664670659" width="0.12324322253543762" height="26.94610778443114"/><rect x="15.17356435285189" y="751.556886227545" width="0" height="26.94610778443114"/><rect x="14.635959351891765" y="781.497005988024" width="0" height="26.94610778443114"/><rect x="12.292195979916077" y="811.437125748503" width="2.213961552411863" height="26.94610778443114"/><rect x="14.466822105088234" y="841.377245508982" width="0" height="26.94610778443114"/><rect x="12.433642578292677" y="871.3173652694611" width="1.3462982117183646" height="26.94610778443114"/><rect x="13.761079695125966" y="901.2574850299401" width="0.014077955214633064" height="26.94610778443114"/><rect x="13.263033790992358" y="931.1976047904192" width="0.0343269110463833" height="26.94610778443114"/><rect x="12.520402724718782" y="961.1377245508982" width="0" height="26.94610778443114"/><rect x="10.01341164052838" y="991.0778443113772" width="2.4874089917029227" height="26.94610778443114"/><rect x="12.243737284206942" y="1021.0179640718563" width="0" height="26.94610778443114"/><rect x="12.153074533273085" y="1050.9580838323354" width="0" height="26.94610778443114"/><rect x="11.83510733613407" y="1080.8982035928143" width="0" height="26.94610778443114"/><rect x="10.437692546363856" y="1110.8383233532934" width="1.3427152309892048" height="26.94610778443114"/><rect x="11.368874757763818" y="1140.7784431137725" width="0" height="26.94610778443114"/><rect x="11.323530915567398" y="1170.7185628742516" width="0.020362893814240834" height="26.94610778443114"/><rect x="11.24330266481263" y="1200.6586826347304" width="0.030481001200865165" height="26.94610778443114"/><rect x="11.19423800679962" y="1230.5988023952095" width="0" height="26.94610778443114"/><rect x="11.188495995793401" y="1260.5389221556886" width="0" height="26.94610778443114"/><rect x="11.110043141434579" y="1290.4790419161677" width="0" height="26.94610778443114"/><rect x="11.026948945022902" y="1320.4191616766468" width="0" height="26.94610778443114"/><rect x="10.861792760824212" y="1350.3592814371257" width="0" height="26.94610778443114"/><rect x="10.819591936585619" y="1380.2994011976048" width="0" height="26.94610778443114"/><rect x="10.727791329876933" y="1410.2395209580839" width="0" height="26.94610778443114"/><rect x="10.694430910416626" y="1440.179640718563" width="0" height="26.94610778443114"/><rect x="10.5533846495098" y="1470.119760479042" width="0" height="26.94610778443114"/><rect x="10" y="1500.059880239521" width="0.12802020504363654" height="26.94610778443114"/></g></g><g fill="black" text-anchor="start" style="font: 18px sans-serif;"><text x="10" y="46.467065868263454" dy="0.35em">Dept of Community Health  $15,649,092,261</text><text x="10" y="76.4071856287425" dy="0.35em">Dept of Education  $12,769,228,158</text><text x="10" y="106.34730538922155" dy="0.35em">University System of Ga  $8,216,106,660</text><text x="10" y="136.2874251497006" dy="0.35em">Dept of Transportation  $3,701,269,742</text><text x="10" y="166.22754491017963" dy="0.35em">Dept of Human Services  $1,963,882,417</text><text x="10" y="196.16766467065867" dy="0.35em">Dept of Behavioral Health &amp; Developmental Disabilities  $1,408,568,597</text><text x="10" y="226.10778443113773" dy="0.35em">General Obligation Debt Sinking Fund  $1,243,753,873</text><text x="10" y="256.04790419161674" dy="0.35em">Dept of Corrections $1,224,215,727</text><text x="10" y="285.9880239520958" dy="0.35em">Ga Student Finance Commission  $1,019,340,330</text><text x="10" y="315.9281437125748" dy="0.35em">Technical College System of Ga  $912,685,512</text><text x="10" y="345.86826347305384" dy="0.35em">Dept of Early Care and Learning  $847,445,328</text><text x="10" y="375.8083832335329" dy="0.35em">Dept of Public Health  $698,359,291</text><text x="10" y="405.748502994012" dy="0.35em">Dept of Juvenile Justice  $358,836,013</text><text x="10" y="435.688622754491" dy="0.35em">Dept of Natural Resources  $290,429,358</text><text x="10" y="465.62874251497004" dy="0.35em">Ga Bureau of Investigation  $287,404,454</text><text x="10" y="495.5688622754491" dy="0.35em">Dept of Public Safety  $270,902,403</text><text x="10" y="525.5089820359282" dy="0.35em">Dept of Community Affairs  $257,842,992</text><text x="10" y="555.4491017964071" dy="0.35em">Dept of Administrative Services $218,459,385</text><text x="10" y="585.3892215568862" dy="0.35em">Dept of Revenue  $198,668,290</text><text x="10" y="615.3293413173653" dy="0.35em">Dept of Community Supervision  $186,522,108</text><text x="10" y="645.2694610778443" dy="0.35em">Dept of Labor  $120,569,823</text><text x="10" y="675.2095808383234" dy="0.35em">Ga Public Defender Council  $94,060,051</text><text x="10" y="705.1497005988024" dy="0.35em">Office of the Governor  $91,627,742</text><text x="10" y="735.0898203592815" dy="0.35em">Prosecuting Attorneys $86,808,457</text><text x="10" y="765.0299401197606" dy="0.35em">Dept of Defense  $84,865,394</text><text x="10" y="794.9700598802395" dy="0.35em">Superior Courts $76,046,704</text><text x="10" y="824.9101796407186" dy="0.35em">Dept of Law  $73,917,479</text><text x="10" y="854.8502994011976" dy="0.35em">Dept of Driver Services  $73,272,234</text><text x="10" y="884.7904191616767" dy="0.35em">Employees' Retirement System of Ga  $62,004,866</text><text x="10" y="914.7305389221557" dy="0.35em">Dept of Agriculture $61,926,405</text><text x="10" y="944.6706586826348" dy="0.35em">State Forestry Commission  $54,088,786</text><text x="10" y="974.6107784431138" dy="0.35em">Dept of Veterans Service  $41,343,831</text><text x="10" y="1004.5508982035929" dy="0.35em">Teachers Retirement System  $41,022,613</text><text x="10" y="1034.491017964072" dy="0.35em">Dept of Audits and Accounts $36,805,505</text><text x="10" y="1064.431137724551" dy="0.35em">Dept of Economic Development  $35,318,304</text><text x="10" y="1094.37125748503" dy="0.35em">Secretary of State  $30,102,478</text><text x="10" y="1124.311377245509" dy="0.35em">State Accounting Office $29,205,205</text><text x="10" y="1154.251497005988" dy="0.35em">Court of Appeals $22,454,557</text><text x="10" y="1184.1916167664672" dy="0.35em">Commissioner of Insurance  $22,044,778</text><text x="10" y="1214.131736526946" dy="0.35em">Judicial Council $20,894,715</text><text x="10" y="1244.0718562874251" dy="0.35em">Ga House of Representatives $19,589,875</text><text x="10" y="1274.0119760479042" dy="0.35em">State Board of Workers' Compensation  $19,495,685</text><text x="10" y="1303.9520958083833" dy="0.35em">State Board of Pardons and Paroles  $18,208,771</text><text x="10" y="1333.8922155688624" dy="0.35em">Supreme Court $16,845,722</text><text x="10" y="1363.8323353293413" dy="0.35em">General Assembly $14,136,556</text><text x="10" y="1393.7724550898204" dy="0.35em">Dept of Banking and Finance  $13,444,308</text><text x="10" y="1423.7125748502995" dy="0.35em">Ga Senate $11,938,442</text><text x="10" y="1453.6526946107786" dy="0.35em">Public Service Commission  $11,391,209</text><text x="10" y="1483.5928143712576" dy="0.35em">Juvenile Courts $9,077,534</text><text x="10" y="1513.5329341317365" dy="0.35em">State Properties Commission  $2,100,000</text></g><g transform="translate(0,30)" fill="none" font-size="10" font-family="sans-serif" text-anchor="middle"><g class="tick" opacity="1" transform="translate(10.5,0)"><line stroke="currentColor" y2="-6"/><text fill="currentColor" y="-9" dy="0em">0</text></g><g class="tick" opacity="1" transform="translate(132.42400480346302,0)"><line stroke="currentColor" y2="-6"/><text fill="currentColor" y="-9" dy="0em">2,000,000,000</text></g><g class="tick" opacity="1" transform="translate(254.34800960692604,0)"><line stroke="currentColor" y2="-6"/><text fill="currentColor" y="-9" dy="0em">4,000,000,000</text></g><g class="tick" opacity="1" transform="translate(376.27201441038903,0)"><line stroke="currentColor" y2="-6"/><text fill="currentColor" y="-9" dy="0em">6,000,000,000</text></g><g class="tick" opacity="1" transform="translate(498.1960192138521,0)"><line stroke="currentColor" y2="-6"/><text fill="currentColor" y="-9" dy="0em">8,000,000,000</text></g><g class="tick" opacity="1" transform="translate(620.1200240173151,0)"><line stroke="currentColor" y2="-6"/><text fill="currentColor" y="-9" dy="0em">10,000,000,000</text></g><g class="tick" opacity="1" transform="translate(742.0440288207781,0)"><line stroke="currentColor" y2="-6"/><text fill="currentColor" y="-9" dy="0em">12,000,000,000</text></g><g class="tick" opacity="1" transform="translate(863.9680336242411,0)"><line stroke="currentColor" y2="-6"/><text fill="currentColor" y="-9" dy="0em">14,000,000,000</text></g></g><g transform="translate(10,0)" fill="none" font-size="10" font-family="sans-serif" text-anchor="end"><path class="domain" stroke="currentColor" d="M0.5,30.5V1530.5"/><g class="tick" opacity="1" transform="translate(0,46.467065868263454)"><line stroke="currentColor" x2="-6"/><text fill="currentColor" x="-9" dy="0.32em"/></g><g class="tick" opacity="1" transform="translate(0,76.4071856287425)"><line stroke="currentColor" x2="-6"/><text fill="currentColor" x="-9" dy="0.32em"/></g><g class="tick" opacity="1" transform="translate(0,106.34730538922155)"><line stroke="currentColor" x2="-6"/><text fill="currentColor" x="-9" dy="0.32em"/></g><g class="tick" opacity="1" transform="translate(0,136.2874251497006)"><line stroke="currentColor" x2="-6"/><text fill="currentColor" x="-9" dy="0.32em"/></g><g class="tick" opacity="1" transform="translate(0,166.22754491017963)"><line stroke="currentColor" x2="-6"/><text fill="currentColor" x="-9" dy="0.32em"/></g><g class="tick" opacity="1" transform="translate(0,196.16766467065867)"><line stroke="currentColor" x2="-6"/><text fill="currentColor" x="-9" dy="0.32em"/></g><g class="tick" opacity="1" transform="translate(0,226.10778443113773)"><line stroke="currentColor" x2="-6"/><text fill="currentColor" x="-9" dy="0.32em"/></g><g class="tick" opacity="1" transform="translate(0,256.0479041916168)"><line stroke="currentColor" x2="-6"/><text fill="currentColor" x="-9" dy="0.32em"/></g><g class="tick" opacity="1" transform="translate(0,285.9880239520958)"><line stroke="currentColor" x2="-6"/><text fill="currentColor" x="-9" dy="0.32em"/></g><g class="tick" opacity="1" transform="translate(0,315.9281437125748)"><line stroke="currentColor" x2="-6"/><text fill="currentColor" x="-9" dy="0.32em"/></g><g class="tick" opacity="1" transform="translate(0,345.86826347305384)"><line stroke="currentColor" x2="-6"/><text fill="currentColor" x="-9" dy="0.32em"/></g><g class="tick" opacity="1" transform="translate(0,375.8083832335329)"><line stroke="currentColor" x2="-6"/><text fill="currentColor" x="-9" dy="0.32em"/></g><g class="tick" opacity="1" transform="translate(0,405.748502994012)"><line stroke="currentColor" x2="-6"/><text fill="currentColor" x="-9" dy="0.32em"/></g><g class="tick" opacity="1" transform="translate(0,435.688622754491)"><line stroke="currentColor" x2="-6"/><text fill="currentColor" x="-9" dy="0.32em"/></g><g class="tick" opacity="1" transform="translate(0,465.62874251497004)"><line stroke="currentColor" x2="-6"/><text fill="currentColor" x="-9" dy="0.32em"/></g><g class="tick" opacity="1" transform="translate(0,495.5688622754491)"><line stroke="currentColor" x2="-6"/><text fill="currentColor" x="-9" dy="0.32em"/></g><g class="tick" opacity="1" transform="translate(0,525.5089820359282)"><line stroke="currentColor" x2="-6"/><text fill="currentColor" x="-9" dy="0.32em"/></g><g class="tick" opacity="1" transform="translate(0,555.4491017964071)"><line stroke="currentColor" x2="-6"/><text fill="currentColor" x="-9" dy="0.32em"/></g><g class="tick" opacity="1" transform="translate(0,585.3892215568862)"><line stroke="currentColor" x2="-6"/><text fill="currentColor" x="-9" dy="0.32em"/></g><g class="tick" opacity="1" transform="translate(0,615.3293413173653)"><line stroke="currentColor" x2="-6"/><text fill="currentColor" x="-9" dy="0.32em"/></g><g class="tick" opacity="1" transform="translate(0,645.2694610778443)"><line stroke="currentColor" x2="-6"/><text fill="currentColor" x="-9" dy="0.32em"/></g><g class="tick" opacity="1" transform="translate(0,675.2095808383234)"><line stroke="currentColor" x2="-6"/><text fill="currentColor" x="-9" dy="0.32em"/></g><g class="tick" opacity="1" transform="translate(0,705.1497005988024)"><line stroke="currentColor" x2="-6"/><text fill="currentColor" x="-9" dy="0.32em"/></g><g class="tick" opacity="1" transform="translate(0,735.0898203592815)"><line stroke="currentColor" x2="-6"/><text fill="currentColor" x="-9" dy="0.32em"/></g><g class="tick" opacity="1" transform="translate(0,765.0299401197606)"><line stroke="currentColor" x2="-6"/><text fill="currentColor" x="-9" dy="0.32em"/></g><g class="tick" opacity="1" transform="translate(0,794.9700598802395)"><line stroke="currentColor" x2="-6"/><text fill="currentColor" x="-9" dy="0.32em"/></g><g class="tick" opacity="1" transform="translate(0,824.9101796407186)"><line stroke="currentColor" x2="-6"/><text fill="currentColor" x="-9" dy="0.32em"/></g><g class="tick" opacity="1" transform="translate(0,854.8502994011976)"><line stroke="currentColor" x2="-6"/><text fill="currentColor" x="-9" dy="0.32em"/></g><g class="tick" opacity="1" transform="translate(0,884.7904191616767)"><line stroke="currentColor" x2="-6"/><text fill="currentColor" x="-9" dy="0.32em"/></g><g class="tick" opacity="1" transform="translate(0,914.7305389221557)"><line stroke="currentColor" x2="-6"/><text fill="currentColor" x="-9" dy="0.32em"/></g><g class="tick" opacity="1" transform="translate(0,944.6706586826348)"><line stroke="currentColor" x2="-6"/><text fill="currentColor" x="-9" dy="0.32em"/></g><g class="tick" opacity="1" transform="translate(0,974.6107784431138)"><line stroke="currentColor" x2="-6"/><text fill="currentColor" x="-9" dy="0.32em"/></g><g class="tick" opacity="1" transform="translate(0,1004.5508982035929)"><line stroke="currentColor" x2="-6"/><text fill="currentColor" x="-9" dy="0.32em"/></g><g class="tick" opacity="1" transform="translate(0,1034.491017964072)"><line stroke="currentColor" x2="-6"/><text fill="currentColor" x="-9" dy="0.32em"/></g><g class="tick" opacity="1" transform="translate(0,1064.431137724551)"><line stroke="currentColor" x2="-6"/><text fill="currentColor" x="-9" dy="0.32em"/></g><g class="tick" opacity="1" transform="translate(0,1094.37125748503)"><line stroke="currentColor" x2="-6"/><text fill="currentColor" x="-9" dy="0.32em"/></g><g class="tick" opacity="1" transform="translate(0,1124.311377245509)"><line stroke="currentColor" x2="-6"/><text fill="currentColor" x="-9" dy="0.32em"/></g><g class="tick" opacity="1" transform="translate(0,1154.251497005988)"><line stroke="currentColor" x2="-6"/><text fill="currentColor" x="-9" dy="0.32em"/></g><g class="tick" opacity="1" transform="translate(0,1184.1916167664672)"><line stroke="currentColor" x2="-6"/><text fill="currentColor" x="-9" dy="0.32em"/></g><g class="tick" opacity="1" transform="translate(0,1214.131736526946)"><line stroke="currentColor" x2="-6"/><text fill="currentColor" x="-9" dy="0.32em"/></g><g class="tick" opacity="1" transform="translate(0,1244.0718562874251)"><line stroke="currentColor" x2="-6"/><text fill="currentColor" x="-9" dy="0.32em"/></g><g class="tick" opacity="1" transform="translate(0,1274.0119760479042)"><line stroke="currentColor" x2="-6"/><text fill="currentColor" x="-9" dy="0.32em"/></g><g class="tick" opacity="1" transform="translate(0,1303.9520958083833)"><line stroke="currentColor" x2="-6"/><text fill="currentColor" x="-9" dy="0.32em"/></g><g class="tick" opacity="1" transform="translate(0,1333.8922155688624)"><line stroke="currentColor" x2="-6"/><text fill="currentColor" x="-9" dy="0.32em"/></g><g class="tick" opacity="1" transform="translate(0,1363.8323353293413)"><line stroke="currentColor" x2="-6"/><text fill="currentColor" x="-9" dy="0.32em"/></g><g class="tick" opacity="1" transform="translate(0,1393.7724550898204)"><line stroke="currentColor" x2="-6"/><text fill="currentColor" x="-9" dy="0.32em"/></g><g class="tick" opacity="1" transform="translate(0,1423.7125748502995)"><line stroke="currentColor" x2="-6"/><text fill="currentColor" x="-9" dy="0.32em"/></g><g class="tick" opacity="1" transform="translate(0,1453.6526946107786)"><line stroke="currentColor" x2="-6"/><text fill="currentColor" x="-9" dy="0.32em"/></g><g class="tick" opacity="1" transform="translate(0,1483.5928143712576)"><line stroke="currentColor" x2="-6"/><text fill="currentColor" x="-9" dy="0.32em"/></g><g class="tick" opacity="1" transform="translate(0,1513.5329341317365)"><line stroke="currentColor" x2="-6"/><text fill="currentColor" x="-9" dy="0.32em"/></g></g></svg>