<svg viewBox="0,0,975,1100" width="975" height="1100" style="width: 100%; max-width: 620px; height: auto; font: 20px sans-serif;" xmlns="http://www.w3.org/2000/svg" xmlns:xlink="http://www.w3.org/1999/xlink"><g transform="translate(1,1)"><rect id="O-leaf-833" fill="#1f77b4" fill-opacity="0.6" width="657" height="491"/><clipPath id="O-clip-849"><use xlink:href="#O-leaf-833"/></clipPath><text clip-path="url(#O-clip-849)"><tspan x="3" y="1.1em" fill-opacity="1">Police</tspan><tspan x="3" y="2em" fill-opacity="1">$205m</tspan><tspan x="3" y="3.2em" fill-opacity="1">30.2%</tspan></text></g><g transform="translate(659,1)"><rect id="O-leaf-834" fill="#ff7f0e" fill-opacity="0.6" width="315" height="491"/><clipPath id="O-clip-850"><use xlink:href="#O-leaf-834"/></clipPath><text clip-path="url(#O-clip-850)"><tspan x="3" y="1.1em" fill-opacity="1">Non-</tspan><tspan x="3" y="2em" fill-opacity="1">Departmental: </tspan><tspan x="3" y="2.9000000000000004em" fill-opacity="1">Debt service, </tspan><tspan x="3" y="3.8000000000000003em" fill-opacity="1">Workers' comp, </tspan><tspan x="3" y="4.7em" fill-opacity="1">Insurance, </tspan><tspan x="3" y="5.6em" fill-opacity="1">Unemployment, </tspan><tspan x="3" y="6.5em" fill-opacity="1">Reserves and more</tspan><tspan x="3" y="7.4em" fill-opacity="1">$98.3m</tspan><tspan x="3" y="8.6em" fill-opacity="1">14.5%</tspan></text></g><g transform="translate(1,493)"><rect id="O-leaf-835" fill="#2ca02c" fill-opacity="0.6" width="482" height="302"/><clipPath id="O-clip-851"><use xlink:href="#O-leaf-835"/></clipPath><text clip-path="url(#O-clip-851)"><tspan x="3" y="1.1em" fill-opacity="1">Fire</tspan><tspan x="3" y="2em" fill-opacity="1">$92.8m</tspan><tspan x="3" y="3.2em" fill-opacity="1">13.7%</tspan></text></g><g transform="translate(1,796)"><rect id="O-leaf-836" fill="#d62728" fill-opacity="0.6" width="264" height="303"/><clipPath id="O-clip-852"><use xlink:href="#O-leaf-836"/></clipPath><text clip-path="url(#O-clip-852)"><tspan x="3" y="1.1em" fill-opacity="1">Public </tspan><tspan x="3" y="2em" fill-opacity="1">Works</tspan><tspan x="3" y="2.9000000000000004em" fill-opacity="1">$51.0m</tspan><tspan x="3" y="4.1000000000000005em" fill-opacity="1">7.5%</tspan></text></g><g transform="translate(266,796)"><rect id="O-leaf-837" fill="#9467bd" fill-opacity="0.6" width="217" height="303"/><clipPath id="O-clip-853"><use xlink:href="#O-leaf-837"/></clipPath><text clip-path="url(#O-clip-853)"><tspan x="3" y="1.1em" fill-opacity="1">Parks &amp; </tspan><tspan x="3" y="2em" fill-opacity="1">Rec</tspan><tspan x="3" y="2.9000000000000004em" fill-opacity="1">$41.9m</tspan><tspan x="3" y="4.1000000000000005em" fill-opacity="1">6.2%</tspan></text></g><g transform="translate(484,493)"><rect id="O-leaf-838" fill="#8c564b" fill-opacity="0.6" width="276" height="174"/><clipPath id="O-clip-854"><use xlink:href="#O-leaf-838"/></clipPath><text clip-path="url(#O-clip-854)"><tspan x="3" y="1.1em" fill-opacity="1">Information </tspan><tspan x="3" y="2em" fill-opacity="1">Management</tspan><tspan x="3" y="2.9000000000000004em" fill-opacity="1">$30.8m</tspan><tspan x="3" y="4.1000000000000005em" fill-opacity="1">4.6%</tspan></text></g><g transform="translate(484,668)"><rect id="O-leaf-839" fill="#e377c2" fill-opacity="0.6" width="276" height="127"/><clipPath id="O-clip-855"><use xlink:href="#O-leaf-839"/></clipPath><text clip-path="url(#O-clip-855)"><tspan x="3" y="1.1em" fill-opacity="1">City </tspan><tspan x="3" y="2em" fill-opacity="1">Planning</tspan><tspan x="3" y="2.9000000000000004em" fill-opacity="1">$22.5m</tspan><tspan x="3" y="4.1000000000000005em" fill-opacity="1">3.3%</tspan></text></g><g transform="translate(761,493)"><rect id="O-leaf-840" fill="#7f7f7f" fill-opacity="0.6" width="213" height="154"/><clipPath id="O-clip-856"><use xlink:href="#O-leaf-840"/></clipPath><text clip-path="url(#O-clip-856)"><tspan x="3" y="1.1em" fill-opacity="1">Everything else: </tspan><tspan x="3" y="2em" fill-opacity="1">Customer </tspan><tspan x="3" y="2.9000000000000004em" fill-opacity="1">Service, </tspan><tspan x="3" y="3.8000000000000003em" fill-opacity="1">Procurement and more</tspan><tspan x="3" y="4.7em" fill-opacity="1">$21.0m</tspan><tspan x="3" y="5.9em" fill-opacity="1">3.1%</tspan></text></g><g transform="translate(761,648)"><rect id="O-leaf-841" fill="#bcbd22" fill-opacity="0.6" width="213" height="147"/><clipPath id="O-clip-857"><use xlink:href="#O-leaf-841"/></clipPath><text clip-path="url(#O-clip-857)"><tspan x="3" y="1.1em" fill-opacity="1">Corrections</tspan><tspan x="3" y="2em" fill-opacity="1">$20.1m</tspan><tspan x="3" y="3.2em" fill-opacity="1">3%</tspan></text></g><g transform="translate(484,796)"><rect id="O-leaf-842" fill="#17becf" fill-opacity="0.6" width="289" height="108"/><clipPath id="O-clip-858"><use xlink:href="#O-leaf-842"/></clipPath><text clip-path="url(#O-clip-858)"><tspan x="3" y="1.1em" fill-opacity="1">Executive </tspan><tspan x="3" y="2em" fill-opacity="1">Offices</tspan><tspan x="3" y="2.9000000000000004em" fill-opacity="1">$19.9m</tspan><tspan x="3" y="4.1000000000000005em" fill-opacity="1">2.9%</tspan></text></g><g transform="translate(484,905)"><rect id="O-leaf-843" fill="#1f77b4" fill-opacity="0.6" width="148" height="194"/><clipPath id="O-clip-859"><use xlink:href="#O-leaf-843"/></clipPath><text clip-path="url(#O-clip-859)"><tspan x="3" y="1.1em" fill-opacity="1">Enterprise </tspan><tspan x="3" y="2em" fill-opacity="1">Assets </tspan><tspan x="3" y="2.9000000000000004em" fill-opacity="1">Management</tspan><tspan x="3" y="3.8000000000000003em" fill-opacity="1">$18.4m</tspan><tspan x="3" y="5em" fill-opacity="1">2.7%</tspan></text></g><g transform="translate(633,905)"><rect id="O-leaf-844" fill="#ff7f0e" fill-opacity="0.6" width="140" height="194"/><clipPath id="O-clip-860"><use xlink:href="#O-leaf-844"/></clipPath><text clip-path="url(#O-clip-860)"><tspan x="3" y="1.1em" fill-opacity="1">Dep't </tspan><tspan x="3" y="2em" fill-opacity="1">Of </tspan><tspan x="3" y="2.9000000000000004em" fill-opacity="1">Finance</tspan><tspan x="3" y="3.8000000000000003em" fill-opacity="1">$17.4m</tspan><tspan x="3" y="5em" fill-opacity="1">2.6%</tspan></text></g><g transform="translate(774,796)"><rect id="O-leaf-845" fill="#2ca02c" fill-opacity="0.6" width="107" height="194"/><clipPath id="O-clip-861"><use xlink:href="#O-leaf-845"/></clipPath><text clip-path="url(#O-clip-861)"><tspan x="3" y="1.1em" fill-opacity="1">Judicial </tspan><tspan x="3" y="2em" fill-opacity="1">Agencies</tspan><tspan x="3" y="2.9000000000000004em" fill-opacity="1">$13.4m</tspan><tspan x="3" y="4.1000000000000005em" fill-opacity="1">2%</tspan></text></g><g transform="translate(882,796)"><rect id="O-leaf-846" fill="#d62728" fill-opacity="0.6" width="92" height="194"/><clipPath id="O-clip-862"><use xlink:href="#O-leaf-846"/></clipPath><text clip-path="url(#O-clip-862)"><tspan x="3" y="1.1em" fill-opacity="1">City </tspan><tspan x="3" y="2em" fill-opacity="1">Council</tspan><tspan x="3" y="2.9000000000000004em" fill-opacity="1">$11.4m</tspan><tspan x="3" y="4.1000000000000005em" fill-opacity="1">1.7%</tspan></text></g><g transform="translate(774,991)"><rect id="O-leaf-847" fill="#9467bd" fill-opacity="0.6" width="101" height="108"/><clipPath id="O-clip-863"><use xlink:href="#O-leaf-847"/></clipPath><text clip-path="url(#O-clip-863)"><tspan x="3" y="1.1em" fill-opacity="1">HR</tspan><tspan x="3" y="2em" fill-opacity="1">$7.03m</tspan><tspan x="3" y="3.2em" fill-opacity="1">1%</tspan></text></g><g transform="translate(876,991)"><rect id="O-leaf-848" fill="#8c564b" fill-opacity="0.6" width="98" height="108"/><clipPath id="O-clip-864"><use xlink:href="#O-leaf-848"/></clipPath><text clip-path="url(#O-clip-864)"><tspan x="3" y="1.1em" fill-opacity="1">Dep't of </tspan><tspan x="3" y="2em" fill-opacity="1">Law</tspan><tspan x="3" y="2.9000000000000004em" fill-opacity="1">$6.84m</tspan><tspan x="3" y="4.1000000000000005em" fill-opacity="1">1%</tspan></text></g></svg>