<svg viewBox="0,0,974,290" width="974" height="290" xmlns="http://www.w3.org/2000/svg" xmlns:xlink="http://www.w3.org/1999/xlink"><g><rect x="10" fill="lightgrey" y="34.90196078431373" width="964" height="44.11764705882353"/><rect x="10" fill="lightgrey" y="83.92156862745098" width="458.11966716295893" height="44.11764705882353"/><rect x="10" fill="lightblue" y="132.94117647058823" width="386.36309326388135" height="44.11764705882353"/><rect x="10" fill="lightgrey" y="181.9607843137255" width="234.8389016465907" height="44.11764705882353"/><rect x="10" fill="lightgrey" y="230.98039215686273" width="150.06423584735035" height="44.11764705882353"/></g><g fill="black" text-anchor="end" style="font: 24px sans-serif;"><text x="974" y="56.9607843137255" dy="0.35em">$5.53b</text><text x="974" y="105.98039215686275" dy="0.35em">$2.63b</text><text x="974" y="155" dy="0.35em">$2.22b</text><text x="974" y="204.01960784313727" dy="0.35em">$1.35b</text><text x="974" y="253.0392156862745" dy="0.35em">$861M</text></g><g fill="black" text-anchor="start" style="font: 24px sans-serif;"><text x="12" y="56.9607843137255" dy="0.35em">MLS estimated revenue, 17 season</text><text x="12" y="105.98039215686275" dy="0.35em">Charlotte proposed budget, FY20</text><text x="12" y="155" dy="0.35em">Atlanta proposd budget, FY20</text><text x="12" y="204.01960784313727" dy="0.35em">Black Panther gross revenue</text><text x="12" y="253.0392156862745" dy="0.35em">American Cancer Society revenue CY17</text></g><g transform="translate(0,30)" fill="none" font-size="10" font-family="sans-serif" text-anchor="middle"/><g transform="translate(10,0)" fill="none" font-size="10" font-family="sans-serif" text-anchor="end"><path class="domain" stroke="currentColor" d="M0.5,30.5V280.5"/><g class="tick" opacity="1" transform="translate(0,56.9607843137255)"><line stroke="currentColor" x2="-6"/><text fill="currentColor" x="-9" dy="0.32em"/></g><g class="tick" opacity="1" transform="translate(0,105.98039215686275)"><line stroke="currentColor" x2="-6"/><text fill="currentColor" x="-9" dy="0.32em"/></g><g class="tick" opacity="1" transform="translate(0,155)"><line stroke="currentColor" x2="-6"/><text fill="currentColor" x="-9" dy="0.32em"/></g><g class="tick" opacity="1" transform="translate(0,204.01960784313727)"><line stroke="currentColor" x2="-6"/><text fill="currentColor" x="-9" dy="0.32em"/></g><g class="tick" opacity="1" transform="translate(0,253.0392156862745)"><line stroke="currentColor" x2="-6"/><text fill="currentColor" x="-9" dy="0.32em"/></g></g></svg>